# xmcd CD database file generated by Grip 3.2.0
# 
# Track frame offsets:
#       150
#       19001
#       40700
# 
# Disc length: 934 seconds
# 
# Revision: 1
# Processed by: cddbd v1.5.1PL0 Copyright (c) Steve Scherf et al.
# Submitted via: Grip 3.2.0
# 
DISCID=1703a403
DTITLE=Big Country - Singles Collection 1 CD6 East of Eden
DYEAR=1984
DGENRE=Rock
TTITLE0=East of Eden
TTITLE1=Prairie Rose
TTITLE2=East of Eden extended version
EXTD=
EXTT0=
EXTT1=
EXTT2=
PLAYORDER=
